<svg width="60" height="60" viewBox="0 0 60 60" fill="none" xmlns="http://www.w3.org/2000/svg">
<circle cx="30" cy="30" r="29.5" fill="white" stroke="#D1D5DA"/>
<path d="M37.6 23.35H35.1433L32.5716 20.7784C32.4836 20.69 32.3789 20.6199 32.2636 20.5721C32.1484 20.5243 32.0248 20.4998 31.9 20.5H28.1C27.9752 20.4998 27.8516 20.5243 27.7364 20.5721C27.6211 20.6199 27.5164 20.69 27.4283 20.7784L24.8567 23.35H22.4C21.3521 23.35 20.5 24.2022 20.5 25.25V35.7C20.5 36.7479 21.3521 37.6 22.4 37.6H37.6C38.6478 37.6 39.5 36.7479 39.5 35.7V25.25C39.5 24.2022 38.6478 23.35 37.6 23.35ZM30 34.75C27.4255 34.75 25.25 32.5745 25.25 30C25.25 27.4246 27.4255 25.25 30 25.25C32.5745 25.25 34.75 27.4246 34.75 30C34.75 32.5745 32.5745 34.75 30 34.75Z" fill="black"/>
<path d="M30.95 27.15H29.05V29.05H27.15V30.95H29.05V32.85H30.95V30.95H32.85V29.05H30.95V27.15Z" fill="black"/>
</svg>
