<svg width="24" height="24" viewBox="0 0 24 24" fill="none" xmlns="http://www.w3.org/2000/svg">
<path d="M8.11111 16C8.11111 16.2947 8.22817 16.5773 8.43655 16.7857C8.64492 16.994 8.92754 17.1111 9.22222 17.1111H14.7778C15.0725 17.1111 15.3551 16.994 15.5635 16.7857C15.7718 16.5773 15.8889 16.2947 15.8889 16V9.33333H17V8.22222H14.7778V7.11111C14.7778 6.81643 14.6607 6.53381 14.4523 6.32544C14.244 6.11706 13.9614 6 13.6667 6H10.3333C10.0386 6 9.75603 6.11706 9.54766 6.32544C9.33929 6.53381 9.22222 6.81643 9.22222 7.11111V8.22222H7V9.33333H8.11111V16ZM10.3333 7.11111H13.6667V8.22222H10.3333V7.11111ZM9.77778 9.33333H14.7778V16H9.22222V9.33333H9.77778Z" fill="black"/>
<path d="M10.3334 10.4445H11.4445V14.8889H10.3334V10.4445ZM12.5556 10.4445H13.6667V14.8889H12.5556V10.4445Z" fill="black"/>
<rect x="0.5" y="0.5" width="23" height="23" rx="11.5" stroke="#D1D5DA"/>
</svg>
