<svg width="24" height="24" viewBox="0 0 24 24" fill="none" xmlns="http://www.w3.org/2000/svg">
<rect x="0.5" y="0.5" width="23" height="23" rx="11.5" fill="white"/>
<path d="M16.4031 9.125C16.6394 8.88875 16.7694 8.575 16.7694 8.24125C16.7694 7.9075 16.6394 7.59375 16.4031 7.3575L15.4119 6.36625C15.1756 6.13 14.8619 6 14.5281 6C14.1944 6 13.8806 6.13 13.645 6.36563L7 12.99V15.7494H9.75813L16.4031 9.125ZM14.5281 7.25L15.52 8.24062L14.5262 9.23063L13.535 8.24L14.5281 7.25ZM8.25 14.4994V13.5087L12.65 9.1225L13.6413 10.1137L9.24187 14.4994H8.25ZM7 16.9994H17V18.2494H7V16.9994Z" fill="black"/>
<rect x="0.5" y="0.5" width="23" height="23" rx="11.5" stroke="#D1D5DA"/>
</svg>
