<svg width="490" height="281" viewBox="0 0 490 281" fill="none" xmlns="http://www.w3.org/2000/svg">
<line x1="98.3001" y1="1" x2="98.3001" y2="225.94" stroke="#E1E4E8"/>
<line x1="321.843" y1="1" x2="321.843" y2="224.543" stroke="#E1E4E8"/>
<line x1="210.072" y1="1" x2="210.072" y2="224.543" stroke="#E1E4E8"/>
<line x1="433.614" y1="1" x2="433.614" y2="224.543" stroke="#E1E4E8"/>
<line x1="154.186" y1="1" x2="154.186" y2="224.543" stroke="#E1E4E8"/>
<line x1="377.729" y1="1" x2="377.729" y2="224.543" stroke="#E1E4E8"/>
<line x1="265.957" y1="1" x2="265.957" y2="224.543" stroke="#E1E4E8"/>
<line x1="489.5" y1="1" x2="489.5" y2="224.543" stroke="#E1E4E8"/>
<line x1="69.8572" y1="196.1" x2="489" y2="196.1" stroke="#E1E4E8"/>
<line x1="69.8572" y1="84.3286" x2="489" y2="84.3286" stroke="#E1E4E8"/>
<line x1="69.8572" y1="140.214" x2="489" y2="140.214" stroke="#E1E4E8"/>
<line x1="69.8572" y1="28.4429" x2="489" y2="28.4429" stroke="#E1E4E8"/>
<line x1="69.8572" y1="168.157" x2="489" y2="168.157" stroke="#E1E4E8"/>
<line x1="69.8572" y1="56.3857" x2="489" y2="56.3857" stroke="#E1E4E8"/>
<line x1="69.8572" y1="112.271" x2="489" y2="112.271" stroke="#E1E4E8"/>
<line x1="69.8573" y1="0.5" x2="489" y2="0.5" stroke="#E1E4E8"/>
<line x1="126.243" y1="1" x2="126.243" y2="224.543" stroke="#E1E4E8"/>
<line x1="349.786" y1="1" x2="349.786" y2="224.543" stroke="#E1E4E8"/>
<line x1="238.014" y1="1" x2="238.014" y2="224.543" stroke="#E1E4E8"/>
<line x1="461.557" y1="1" x2="461.557" y2="224.543" stroke="#E1E4E8"/>
<line x1="182.129" y1="1" x2="182.129" y2="224.543" stroke="#E1E4E8"/>
<line x1="405.672" y1="1" x2="405.672" y2="224.543" stroke="#E1E4E8"/>
<line x1="293.9" y1="1" x2="293.9" y2="224.543" stroke="#E1E4E8"/>
<line x1="70.8573" y1="1" x2="70.8573" y2="225.94" stroke="black" stroke-width="2"/>
<line x1="489" y1="225.543" x2="69.8573" y2="225.543" stroke="black" stroke-width="2"/>
<path d="M10.0496 154.019L11.0437 154.003L11.1089 158.119L10.1147 158.135L10.0496 154.019ZM17.7306 156.781L9.04134 156.919C8.6039 156.926 8.23773 156.829 7.94285 156.628C7.64797 156.427 7.42502 156.164 7.27402 155.838C7.12301 155.512 7.04462 155.167 7.03885 154.803C7.03429 154.514 7.05376 154.279 7.09727 154.096C7.14078 153.913 7.18171 153.776 7.22006 153.686L8.23949 154.008C8.22055 154.068 8.19701 154.151 8.16886 154.258C8.14066 154.361 8.1279 154.497 8.13057 154.666C8.13671 155.054 8.23891 155.332 8.43716 155.501C8.63536 155.667 8.92336 155.747 9.30115 155.741L17.712 155.608L17.7306 156.781ZM17.6631 152.52L10.0277 152.641L10.0098 151.508L11.1631 151.489L11.1618 151.41C10.7818 151.277 10.4713 151.03 10.2302 150.669C9.98916 150.308 9.86501 149.899 9.85777 149.441C9.8564 149.355 9.85636 149.248 9.85762 149.118C9.85889 148.989 9.86232 148.891 9.86789 148.825L11.0609 148.806C11.0516 148.846 11.0381 148.937 11.0205 149.08C10.9995 149.22 10.9903 149.367 10.9927 149.523C10.9986 149.894 11.0817 150.224 11.2421 150.513C11.3991 150.799 11.6148 151.025 11.8892 151.189C12.1603 151.351 12.4681 151.429 12.8128 151.423L17.6446 151.347L17.6631 152.52ZM17.697 144.606C17.7086 145.342 17.5563 145.979 17.24 146.518C16.9203 147.053 16.4694 147.47 15.8874 147.767C15.302 148.062 14.6183 148.215 13.8362 148.227C13.0541 148.24 12.3625 148.108 11.7615 147.833C11.1571 147.554 10.6835 147.16 10.3407 146.652C9.99446 146.14 9.8159 145.54 9.80499 144.851C9.7987 144.453 9.85876 144.059 9.98518 143.669C10.1116 143.279 10.3214 142.923 10.6146 142.6C10.9046 142.277 11.2916 142.018 11.7758 141.821C12.2599 141.624 12.8583 141.521 13.5708 141.509L14.0679 141.501L14.161 147.387L13.1469 147.403L13.0727 142.71C12.6419 142.717 12.2588 142.81 11.9235 142.987C11.5881 143.162 11.3252 143.408 11.1347 143.726C10.9441 144.04 10.8521 144.41 10.8588 144.834C10.8662 145.301 10.9886 145.704 11.226 146.041C11.46 146.376 11.7624 146.631 12.1331 146.808C12.5039 146.984 12.8997 147.069 13.3205 147.062L13.9966 147.051C14.5732 147.042 15.0605 146.935 15.4583 146.73C15.8528 146.522 16.1516 146.237 16.3547 145.876C16.5545 145.514 16.6507 145.097 16.6432 144.623C16.6383 144.315 16.5908 144.037 16.5007 143.79C16.4072 143.539 16.2712 143.324 16.0927 143.145C15.9109 142.966 15.6866 142.828 15.4199 142.733L15.7201 141.595C16.1064 141.708 16.4476 141.903 16.7437 142.18C17.0365 142.457 17.2673 142.802 17.4363 143.213C17.6019 143.625 17.6888 144.089 17.697 144.606ZM20.2447 134.674L16.2082 134.738L16.2098 134.837C16.3504 134.921 16.528 135.041 16.7426 135.197C16.9539 135.352 17.1447 135.576 17.3151 135.869C17.4821 136.161 17.5695 136.552 17.5773 137.043C17.5874 137.679 17.4355 138.244 17.1218 138.736C16.8047 139.228 16.3534 139.616 15.7679 139.901C15.179 140.185 14.4803 140.334 13.6717 140.347C12.8697 140.359 12.1716 140.233 11.5774 139.967C10.9831 139.701 10.5214 139.326 10.1922 138.84C9.86295 138.355 9.69325 137.791 9.68308 137.148C9.67521 136.651 9.75184 136.257 9.91298 135.966C10.0707 135.672 10.2528 135.447 10.4592 135.291C10.6622 135.132 10.8293 135.008 10.9605 134.92L10.9583 134.781L9.74536 134.8L9.72742 133.667L20.2261 133.501L20.2447 134.674ZM16.5209 136.901C16.5135 136.43 16.3846 136.034 16.1342 135.713C15.8805 135.393 15.5336 135.151 15.0935 134.989C14.65 134.827 14.14 134.75 13.5634 134.76C12.9934 134.769 12.4959 134.859 12.071 135.032C11.6429 135.204 11.312 135.455 11.0786 135.783C10.8418 136.112 10.7272 136.515 10.7347 136.992C10.7426 137.489 10.8767 137.901 11.1372 138.229C11.3942 138.553 11.7411 138.794 12.1779 138.953C12.6113 139.109 13.0964 139.182 13.6332 139.174C14.1767 139.165 14.6692 139.075 15.1107 138.902C15.5487 138.726 15.8961 138.472 16.1527 138.14C16.4059 137.804 16.5287 137.391 16.5209 136.901ZM14.1351 126.902L9.62148 126.973L9.60291 125.8L17.2383 125.679L17.2569 126.853L15.9644 126.873L15.9657 126.953C16.3563 127.125 16.6904 127.398 16.9681 127.772C17.2425 128.146 17.3843 128.621 17.3934 129.197C17.401 129.674 17.3033 130.1 17.1004 130.475C16.8942 130.849 16.5807 131.146 16.1598 131.365C15.7357 131.584 15.1988 131.698 14.5493 131.708L9.69764 131.785L9.67907 130.612L14.4512 130.537C15.0079 130.528 15.4496 130.365 15.776 130.048C16.1024 129.728 16.2618 129.325 16.2541 128.837C16.2495 128.546 16.1702 128.25 16.0163 127.951C15.8623 127.649 15.6296 127.397 15.3182 127.196C15.0067 126.993 14.6123 126.894 14.1351 126.902ZM17.3169 120.593C17.3286 121.329 17.1762 121.966 16.8599 122.504C16.5402 123.04 16.0894 123.456 15.5073 123.754C14.922 124.048 14.2382 124.202 13.4561 124.214C12.674 124.226 11.9825 124.095 11.3814 123.819C10.777 123.54 10.3034 123.147 9.96059 122.638C9.61438 122.127 9.43582 121.526 9.42491 120.837C9.41861 120.439 9.47868 120.046 9.6051 119.656C9.73152 119.266 9.94134 118.91 10.2346 118.587C10.5245 118.264 10.9115 118.004 11.3957 117.808C11.8798 117.611 12.4782 117.507 13.1907 117.496L13.6878 117.488L13.7809 123.374L12.7669 123.39L12.6926 118.697C12.2618 118.704 11.8787 118.796 11.5434 118.974C11.2081 119.148 10.9451 119.394 10.7546 119.712C10.564 120.027 10.472 120.396 10.4788 120.82C10.4861 121.288 10.6085 121.69 10.8459 122.028C11.0799 122.362 11.3823 122.618 11.753 122.794C12.1238 122.971 12.5196 123.055 12.9405 123.049L13.6165 123.038C14.1931 123.029 14.6804 122.922 15.0782 122.717C15.4727 122.508 15.7715 122.223 15.9746 121.862C16.1744 121.501 16.2706 121.083 16.2631 120.61C16.2582 120.301 16.2107 120.024 16.1206 119.776C16.0271 119.526 15.8911 119.311 15.7126 119.132C15.5308 118.952 15.3065 118.815 15.0398 118.72L15.34 117.581C15.7263 117.694 16.0675 117.889 16.3636 118.167C16.6564 118.444 16.8873 118.788 17.0562 119.2C17.2218 119.611 17.3087 120.076 17.3169 120.593ZM12.472 114.815L17.0652 114.742L17.0838 115.915L9.44836 116.036L9.43042 114.903L10.6235 114.884L10.6219 114.784C10.2313 114.612 9.9155 114.345 9.67444 113.984C9.43006 113.623 9.30331 113.154 9.29418 112.578C9.286 112.061 9.38488 111.607 9.59084 111.216C9.79349 110.825 10.1069 110.518 10.5309 110.296C10.9517 110.074 11.4869 109.958 12.1364 109.947L16.9881 109.87L17.0067 111.044L12.2345 111.119C11.6347 111.129 11.1699 111.292 10.8401 111.609C10.507 111.926 10.3448 112.356 10.3534 112.899C10.3593 113.274 10.4458 113.607 10.6128 113.899C10.7798 114.189 11.0204 114.415 11.3346 114.579C11.6488 114.743 12.028 114.822 12.472 114.815ZM17.0683 104.888C17.0797 105.604 16.9204 106.223 16.5906 106.746C16.2607 107.268 15.8014 107.673 15.2126 107.961C14.6238 108.248 13.9483 108.398 13.1861 108.41C12.4106 108.423 11.724 108.291 11.1263 108.015C10.5252 107.737 10.0533 107.343 9.71044 106.835C9.36423 106.323 9.18567 105.722 9.17476 105.033C9.16627 104.496 9.25803 104.011 9.45005 103.577C9.64207 103.143 9.91485 102.786 10.2684 102.505C10.622 102.224 11.0368 102.047 11.513 101.973L11.5316 103.146C11.185 103.241 10.88 103.445 10.6164 103.757C10.3495 104.067 10.2201 104.48 10.2283 104.997C10.2355 105.454 10.3612 105.853 10.6052 106.194C10.8459 106.532 11.1832 106.793 11.6171 106.978C12.0476 107.161 12.5511 107.247 13.1278 107.238C13.7177 107.229 14.2299 107.128 14.6644 106.935C15.0988 106.739 15.4343 106.469 15.6708 106.124C15.9073 105.775 16.0218 105.369 16.0145 104.905C16.0097 104.6 15.9523 104.324 15.8423 104.077C15.7323 103.831 15.5765 103.622 15.375 103.453C15.1734 103.284 14.9329 103.165 14.6533 103.097L14.6348 101.924C15.0865 101.983 15.4951 102.14 15.8604 102.396C16.2224 102.649 16.5129 102.988 16.7317 103.412C16.9472 103.833 17.0594 104.325 17.0683 104.888ZM16.8388 100.439L9.20341 100.56L9.18484 99.3871L16.8202 99.2662L16.8388 100.439ZM7.9214 99.9838C7.92502 100.213 7.85026 100.411 7.69713 100.579C7.54394 100.744 7.35799 100.828 7.13926 100.832C6.92054 100.835 6.73202 100.757 6.57369 100.597C6.41531 100.434 6.33431 100.238 6.33069 100.009C6.32707 99.7804 6.40186 99.5836 6.55504 99.4187C6.70818 99.2506 6.89411 99.1648 7.11283 99.1613C7.33155 99.1578 7.5201 99.2377 7.67848 99.401C7.83681 99.5609 7.91778 99.7552 7.9214 99.9838ZM16.9338 95.1338C16.9415 95.6176 16.8573 96.0582 16.6813 96.4554C16.5019 96.8527 16.2401 97.1701 15.8958 97.4076C15.5482 97.6451 15.1259 97.7678 14.6288 97.7757C14.1913 97.7826 13.8354 97.7021 13.5609 97.534C13.2831 97.3661 13.0641 97.1392 12.9037 96.8533C12.7434 96.5675 12.6224 96.2512 12.5407 95.9044C12.4556 95.5544 12.387 95.2024 12.335 94.8486C12.268 94.3856 12.2173 94.0101 12.1829 93.7223C12.1452 93.4312 12.0871 93.2199 12.0088 93.0886C11.9304 92.9539 11.7968 92.8881 11.6079 92.8911L11.5681 92.8917C11.0777 92.8995 10.6987 93.0397 10.4312 93.3125C10.1636 93.5819 10.0341 93.9867 10.0427 94.5268C10.0516 95.0869 10.1811 95.5241 10.4314 95.8383C10.6817 96.1526 10.947 96.3721 11.2274 96.497L10.8474 97.6168C10.3803 97.4253 10.0149 97.1659 9.75111 96.8386C9.48401 96.508 9.29597 96.1463 9.187 95.7536C9.07466 95.3576 9.01544 94.9674 9.00936 94.583C9.00548 94.3377 9.03084 94.0556 9.08546 93.7365C9.13671 93.4142 9.24945 93.1024 9.42369 92.8013C9.59787 92.4969 9.864 92.2425 10.2221 92.0379C10.5801 91.8333 11.0624 91.7263 11.6689 91.7167L16.6995 91.637L16.7181 92.8102L15.6841 92.8266L15.685 92.8862C15.852 92.9631 16.0314 93.0929 16.2232 93.2755C16.4151 93.4581 16.5797 93.7024 16.7171 94.0085C16.8546 94.3146 16.9268 94.6897 16.9338 95.1338ZM15.8772 94.9715C15.8698 94.5075 15.7725 94.1179 15.5852 93.8027C15.3978 93.4841 15.1587 93.2459 14.8678 93.0881C14.5769 92.927 14.2723 92.8489 13.9542 92.8539L12.8805 92.8709C12.9409 92.9197 12.9973 93.0282 13.0497 93.1964C13.0987 93.3614 13.1432 93.5529 13.1831 93.7711C13.2197 93.986 13.2528 94.1959 13.2826 94.401C13.309 94.6028 13.3315 94.7665 13.35 94.8922C13.3946 95.1964 13.4637 95.4804 13.5574 95.7441C13.6477 96.0045 13.782 96.2146 13.9602 96.3742C14.135 96.5305 14.3716 96.6063 14.6699 96.6016C15.0775 96.5952 15.3833 96.4395 15.5873 96.1346C15.7879 95.8265 15.8846 95.4388 15.8772 94.9715ZM11.5148 85.7537C10.2621 85.7736 9.10797 85.6294 8.05229 85.3213C6.99326 85.0099 6.01652 84.5579 5.12209 83.9655L5.10572 82.9315C5.43758 83.1649 5.84543 83.3822 6.32926 83.5834C6.80973 83.7813 7.33785 83.9536 7.91364 84.1003C8.4861 84.247 9.07793 84.3603 9.68912 84.4401C10.3003 84.5166 10.9024 84.5502 11.4956 84.5408C12.2844 84.5283 13.0835 84.4394 13.893 84.2741C14.7025 84.1089 15.4532 83.8915 16.145 83.6219C16.8369 83.3524 17.399 83.0552 17.8314 82.7301L17.8478 83.7641C16.9725 84.3845 16.0122 84.8671 14.9669 85.2118C13.9182 85.5533 12.7675 85.7339 11.5148 85.7537ZM14.545 76.1455L14.0081 76.154C13.6369 76.1598 13.296 76.089 12.9854 75.9414C12.6715 75.7906 12.4193 75.5692 12.2291 75.2772C12.0355 74.9819 11.9353 74.6222 11.9286 74.198C11.9218 73.7672 12.0105 73.4045 12.1948 73.1098C12.3757 72.8153 12.6208 72.591 12.93 72.4369C13.2358 72.2829 13.5743 72.203 13.9455 72.1971L14.4823 72.1886C14.8535 72.1827 15.196 72.2535 15.51 72.401C15.8205 72.5453 16.0726 72.7634 16.2662 73.0553C16.4564 73.344 16.5548 73.7005 16.5615 74.1247C16.5684 74.5555 16.4813 74.9198 16.3004 75.2177C16.1162 75.5157 15.8712 75.7433 15.5654 75.9006C15.2563 76.058 14.9161 76.1396 14.545 76.1455ZM13.9921 75.1399L14.5289 75.1314C14.8371 75.1265 15.1127 75.0492 15.3556 74.8995C15.5952 74.7499 15.7122 74.4961 15.7065 74.1382C15.701 73.7902 15.5762 73.5469 15.332 73.4082C15.0845 73.2663 14.8066 73.1978 14.4984 73.2027L13.9615 73.2112C13.6533 73.216 13.3794 73.29 13.1396 73.433C12.8966 73.5761 12.7779 73.8266 12.7836 74.1845C12.7891 74.5324 12.9157 74.7807 13.1633 74.9293C13.4076 75.0746 13.6839 75.1448 13.9921 75.1399ZM8.79924 81.3081L8.26238 81.3166C7.89121 81.3224 7.55032 81.2516 7.23971 81.104C6.92573 80.9532 6.67362 80.7318 6.48337 80.4398C6.28975 80.1445 6.18958 79.7848 6.18287 79.3606C6.17605 78.9298 6.26478 78.5671 6.44906 78.2724C6.63003 77.9779 6.87509 77.7536 7.18424 77.5995C7.49008 77.4455 7.82858 77.3656 8.19975 77.3597L8.73662 77.3512C9.10778 77.3453 9.45033 77.4161 9.76425 77.5636C10.0748 77.7079 10.3269 77.926 10.5204 78.2179C10.7106 78.5066 10.8091 78.8631 10.8158 79.2873C10.8226 79.7181 10.7356 80.0824 10.5547 80.3803C10.3704 80.6783 10.1254 80.9059 9.81964 81.0632C9.51054 81.2206 9.17041 81.3022 8.79924 81.3081ZM8.24633 80.3025L8.78319 80.294C9.09139 80.2891 9.36696 80.2118 9.60988 80.0621C9.8495 79.9125 9.96647 79.6587 9.9608 79.3008C9.9553 78.9528 9.83046 78.7095 9.58628 78.5708C9.33874 78.4289 9.06087 78.3604 8.75267 78.3653L8.2158 78.3738C7.9076 78.3786 7.63364 78.4526 7.39392 78.5956C7.15089 78.7387 7.03221 78.9892 7.03788 79.3471C7.04338 79.695 7.16996 79.9433 7.41761 80.0919C7.66189 80.2372 7.93813 80.3074 8.24633 80.3025ZM16.5281 80.8079L6.23677 73.9699L6.21883 72.8365L16.5102 79.6745L16.5281 80.8079ZM11.2299 67.7526C12.4826 67.7328 13.6385 67.8786 14.6975 68.19C15.7532 68.4982 16.7282 68.9485 17.6226 69.5409L17.639 70.5749C17.3072 70.3415 16.8993 70.1258 16.4156 69.928C15.935 69.7267 15.4085 69.5527 14.8361 69.406C14.2603 69.2593 13.6668 69.1477 13.0557 69.0712C12.4412 68.9914 11.839 68.9562 11.2491 68.9656C10.4604 68.978 9.66126 69.0669 8.85175 69.2322C8.04224 69.3975 7.29156 69.6149 6.59971 69.8844C5.90787 70.1539 5.34574 70.4512 4.91333 70.7763L4.89697 69.7423C5.7722 69.1219 6.73417 68.6409 7.78287 68.2995C8.82821 67.9547 9.97722 67.7725 11.2299 67.7526Z" fill="black"/>
<path d="M249.902 259.452V260.447H245.944V259.452H249.902ZM247.098 257.623H248.271V264.901C248.271 265.232 248.319 265.481 248.415 265.647C248.515 265.809 248.641 265.919 248.793 265.975C248.949 266.028 249.113 266.054 249.285 266.054C249.415 266.054 249.521 266.048 249.604 266.035C249.686 266.018 249.753 266.005 249.802 265.995L250.041 267.049C249.962 267.079 249.851 267.108 249.708 267.138C249.565 267.171 249.385 267.188 249.166 267.188C248.835 267.188 248.51 267.117 248.192 266.974C247.877 266.832 247.615 266.615 247.406 266.323C247.201 266.031 247.098 265.663 247.098 265.219V257.623ZM254.52 267.248C253.785 267.248 253.15 267.085 252.616 266.76C252.086 266.432 251.677 265.975 251.388 265.388C251.103 264.798 250.961 264.112 250.961 263.33C250.961 262.548 251.103 261.858 251.388 261.262C251.677 260.662 252.078 260.195 252.591 259.86C253.109 259.522 253.712 259.353 254.401 259.353C254.799 259.353 255.192 259.419 255.579 259.552C255.967 259.684 256.32 259.9 256.638 260.198C256.957 260.493 257.21 260.884 257.399 261.371C257.588 261.858 257.682 262.458 257.682 263.171V263.668H251.796V262.654H256.489C256.489 262.223 256.403 261.839 256.231 261.5C256.062 261.162 255.82 260.896 255.505 260.7C255.193 260.505 254.825 260.407 254.401 260.407C253.934 260.407 253.529 260.523 253.188 260.755C252.85 260.983 252.59 261.282 252.408 261.65C252.225 262.018 252.134 262.412 252.134 262.833V263.509C252.134 264.086 252.234 264.575 252.432 264.976C252.635 265.373 252.915 265.677 253.273 265.885C253.631 266.091 254.047 266.194 254.52 266.194C254.829 266.194 255.107 266.151 255.356 266.064C255.608 265.975 255.825 265.842 256.007 265.667C256.189 265.488 256.33 265.266 256.43 265L257.563 265.319C257.444 265.703 257.243 266.041 256.962 266.333C256.68 266.621 256.332 266.847 255.917 267.009C255.503 267.168 255.038 267.248 254.52 267.248ZM259.201 267.089V259.452H260.335V260.645H260.434C260.593 260.238 260.85 259.921 261.205 259.696C261.559 259.467 261.985 259.353 262.482 259.353C262.986 259.353 263.406 259.467 263.74 259.696C264.078 259.921 264.342 260.238 264.531 260.645H264.61C264.806 260.251 265.099 259.938 265.49 259.706C265.881 259.47 266.35 259.353 266.897 259.353C267.58 259.353 268.138 259.567 268.573 259.994C269.007 260.418 269.224 261.08 269.224 261.978V267.089H268.051V261.978C268.051 261.414 267.897 261.012 267.588 260.77C267.28 260.528 266.917 260.407 266.5 260.407C265.963 260.407 265.547 260.569 265.252 260.894C264.957 261.215 264.809 261.623 264.809 262.117V267.089H263.616V261.858C263.616 261.424 263.475 261.075 263.193 260.809C262.912 260.541 262.549 260.407 262.105 260.407C261.8 260.407 261.515 260.488 261.25 260.65C260.988 260.813 260.776 261.038 260.613 261.326C260.454 261.612 260.375 261.941 260.375 262.316V267.089H259.201ZM271.103 269.952V259.452H272.237V260.665H272.376C272.462 260.533 272.581 260.364 272.734 260.158C272.89 259.949 273.112 259.764 273.4 259.601C273.692 259.436 274.086 259.353 274.583 259.353C275.226 259.353 275.793 259.513 276.284 259.835C276.774 260.156 277.157 260.612 277.432 261.202C277.707 261.792 277.845 262.488 277.845 263.29C277.845 264.099 277.707 264.8 277.432 265.393C277.157 265.983 276.776 266.441 276.289 266.765C275.801 267.087 275.24 267.248 274.603 267.248C274.113 267.248 273.72 267.166 273.425 267.004C273.13 266.838 272.903 266.651 272.744 266.442C272.585 266.23 272.462 266.054 272.376 265.915H272.276V269.952H271.103ZM272.257 263.27C272.257 263.847 272.341 264.356 272.51 264.797C272.679 265.234 272.926 265.577 273.251 265.826C273.576 266.071 273.973 266.194 274.444 266.194C274.935 266.194 275.344 266.064 275.672 265.806C276.004 265.544 276.252 265.193 276.418 264.752C276.587 264.308 276.671 263.814 276.671 263.27C276.671 262.733 276.588 262.25 276.423 261.819C276.26 261.384 276.013 261.041 275.682 260.79C275.354 260.534 274.941 260.407 274.444 260.407C273.967 260.407 273.566 260.528 273.241 260.77C272.916 261.008 272.671 261.343 272.505 261.774C272.339 262.201 272.257 262.7 272.257 263.27ZM282.471 267.248C281.781 267.248 281.176 267.084 280.656 266.755C280.139 266.427 279.735 265.968 279.443 265.378C279.155 264.788 279.01 264.099 279.01 263.31C279.01 262.515 279.155 261.82 279.443 261.227C279.735 260.634 280.139 260.173 280.656 259.845C281.176 259.517 281.781 259.353 282.471 259.353C283.16 259.353 283.763 259.517 284.28 259.845C284.801 260.173 285.205 260.634 285.493 261.227C285.785 261.82 285.931 262.515 285.931 263.31C285.931 264.099 285.785 264.788 285.493 265.378C285.205 265.968 284.801 266.427 284.28 266.755C283.763 267.084 283.16 267.248 282.471 267.248ZM282.471 266.194C282.994 266.194 283.425 266.059 283.763 265.791C284.101 265.522 284.352 265.17 284.514 264.732C284.676 264.295 284.758 263.821 284.758 263.31C284.758 262.8 284.676 262.324 284.514 261.883C284.352 261.442 284.101 261.086 283.763 260.814C283.425 260.543 282.994 260.407 282.471 260.407C281.947 260.407 281.516 260.543 281.178 260.814C280.84 261.086 280.59 261.442 280.427 261.883C280.265 262.324 280.184 262.8 280.184 263.31C280.184 263.821 280.265 264.295 280.427 264.732C280.59 265.17 280.84 265.522 281.178 265.791C281.516 266.059 281.947 266.194 282.471 266.194ZM291.545 262.793C291.545 261.54 291.707 260.388 292.032 259.338C292.36 258.284 292.828 257.314 293.434 256.429H294.468C294.23 256.758 294.006 257.162 293.797 257.643C293.592 258.12 293.411 258.645 293.255 259.219C293.1 259.789 292.977 260.379 292.887 260.988C292.801 261.598 292.758 262.2 292.758 262.793C292.758 263.582 292.834 264.382 292.987 265.194C293.139 266.006 293.345 266.76 293.603 267.456C293.862 268.152 294.15 268.719 294.468 269.157H293.434C292.828 268.272 292.36 267.304 292.032 266.253C291.707 265.199 291.545 264.046 291.545 262.793ZM298.653 267.248C298.017 267.248 297.455 267.087 296.968 266.765C296.481 266.441 296.099 265.983 295.824 265.393C295.549 264.8 295.412 264.099 295.412 263.29C295.412 262.488 295.549 261.792 295.824 261.202C296.099 260.612 296.482 260.156 296.973 259.835C297.463 259.513 298.03 259.353 298.673 259.353C299.17 259.353 299.563 259.436 299.851 259.601C300.143 259.764 300.365 259.949 300.518 260.158C300.673 260.364 300.794 260.533 300.88 260.665H300.98V256.907H302.153V267.089H301.02V265.915H300.88C300.794 266.054 300.672 266.23 300.513 266.442C300.353 266.651 300.126 266.838 299.831 267.004C299.536 267.166 299.144 267.248 298.653 267.248ZM298.812 266.194C299.283 266.194 299.681 266.071 300.005 265.826C300.33 265.577 300.577 265.234 300.746 264.797C300.915 264.356 301 263.847 301 263.27C301 262.7 300.917 262.201 300.751 261.774C300.585 261.343 300.34 261.008 300.015 260.77C299.691 260.528 299.29 260.407 298.812 260.407C298.315 260.407 297.901 260.534 297.569 260.79C297.241 261.041 296.994 261.384 296.829 261.819C296.666 262.25 296.585 262.733 296.585 263.27C296.585 263.814 296.668 264.308 296.834 264.752C297.003 265.193 297.251 265.544 297.579 265.806C297.911 266.064 298.322 266.194 298.812 266.194ZM304.199 267.089V259.452H305.372V267.089H304.199ZM304.796 258.179C304.567 258.179 304.37 258.102 304.204 257.946C304.042 257.79 303.96 257.603 303.96 257.384C303.96 257.165 304.042 256.978 304.204 256.822C304.37 256.666 304.567 256.589 304.796 256.589C305.024 256.589 305.22 256.666 305.382 256.822C305.548 256.978 305.631 257.165 305.631 257.384C305.631 257.603 305.548 257.79 305.382 257.946C305.22 258.102 305.024 258.179 304.796 258.179ZM309.502 267.268C309.018 267.268 308.579 267.176 308.185 266.994C307.79 266.808 307.477 266.542 307.245 266.194C307.013 265.842 306.897 265.418 306.897 264.921C306.897 264.483 306.983 264.129 307.156 263.857C307.328 263.582 307.558 263.366 307.847 263.211C308.135 263.055 308.453 262.939 308.801 262.863C309.153 262.783 309.506 262.72 309.86 262.674C310.324 262.614 310.701 262.569 310.989 262.54C311.281 262.506 311.493 262.452 311.625 262.375C311.761 262.299 311.829 262.167 311.829 261.978V261.938C311.829 261.447 311.695 261.066 311.426 260.795C311.161 260.523 310.759 260.387 310.218 260.387C309.658 260.387 309.219 260.509 308.901 260.755C308.583 261 308.359 261.262 308.23 261.54L307.116 261.143C307.315 260.679 307.58 260.317 307.911 260.059C308.246 259.797 308.611 259.615 309.005 259.512C309.403 259.406 309.794 259.353 310.179 259.353C310.424 259.353 310.706 259.383 311.024 259.442C311.345 259.499 311.655 259.616 311.953 259.795C312.255 259.974 312.505 260.244 312.704 260.606C312.903 260.967 313.002 261.451 313.002 262.057V267.089H311.829V266.054H311.769C311.69 266.22 311.557 266.397 311.372 266.586C311.186 266.775 310.939 266.936 310.631 267.069C310.323 267.201 309.947 267.268 309.502 267.268ZM309.681 266.214C310.145 266.214 310.536 266.122 310.855 265.94C311.176 265.758 311.418 265.522 311.581 265.234C311.746 264.946 311.829 264.643 311.829 264.324V263.25C311.779 263.31 311.67 263.365 311.501 263.415C311.335 263.461 311.143 263.502 310.924 263.539C310.709 263.572 310.498 263.602 310.293 263.628C310.091 263.652 309.927 263.671 309.801 263.688C309.496 263.728 309.211 263.792 308.946 263.882C308.684 263.968 308.472 264.099 308.309 264.275C308.15 264.447 308.071 264.682 308.071 264.981C308.071 265.388 308.221 265.697 308.523 265.905C308.828 266.111 309.214 266.214 309.681 266.214ZM320.287 261.162L319.233 261.461C319.167 261.285 319.069 261.114 318.94 260.949C318.814 260.78 318.641 260.64 318.423 260.531C318.204 260.422 317.924 260.367 317.582 260.367C317.115 260.367 316.726 260.475 316.414 260.69C316.106 260.902 315.952 261.172 315.952 261.5C315.952 261.792 316.058 262.022 316.27 262.192C316.482 262.361 316.814 262.501 317.264 262.614L318.398 262.893C319.081 263.058 319.589 263.312 319.924 263.653C320.259 263.991 320.426 264.427 320.426 264.961C320.426 265.398 320.3 265.789 320.048 266.134C319.8 266.479 319.452 266.75 319.004 266.949C318.557 267.148 318.037 267.248 317.443 267.248C316.664 267.248 316.02 267.079 315.509 266.741C314.999 266.402 314.676 265.909 314.54 265.259L315.653 264.981C315.76 265.392 315.96 265.7 316.255 265.905C316.553 266.111 316.943 266.214 317.423 266.214C317.97 266.214 318.404 266.098 318.726 265.866C319.051 265.63 319.213 265.348 319.213 265.02C319.213 264.755 319.12 264.533 318.935 264.354C318.749 264.172 318.464 264.036 318.08 263.947L316.807 263.648C316.108 263.482 315.594 263.226 315.266 262.878C314.941 262.526 314.778 262.087 314.778 261.56C314.778 261.129 314.899 260.748 315.141 260.417C315.387 260.085 315.72 259.825 316.141 259.636C316.565 259.447 317.046 259.353 317.582 259.353C318.338 259.353 318.931 259.518 319.362 259.85C319.796 260.181 320.105 260.619 320.287 261.162ZM324.432 262.793C324.432 264.046 324.268 265.199 323.94 266.253C323.615 267.304 323.149 268.272 322.543 269.157H321.509C321.747 268.829 321.969 268.424 322.175 267.944C322.384 267.466 322.566 266.943 322.722 266.373C322.878 265.799 322.999 265.208 323.085 264.598C323.174 263.985 323.219 263.383 323.219 262.793C323.219 262.004 323.143 261.204 322.99 260.392C322.838 259.58 322.632 258.826 322.374 258.13C322.115 257.434 321.827 256.867 321.509 256.429H322.543C323.149 257.314 323.615 258.284 323.94 259.338C324.268 260.388 324.432 261.54 324.432 262.793Z" fill="black"/>
<path d="M48.7508 24.8899V33.6171H47.694V25.9978H47.6428L45.5122 27.4126V26.3387L47.694 24.8899H48.7508ZM53.8793 33.7365C53.2373 33.7365 52.6904 33.5617 52.2387 33.2123C51.787 32.86 51.4418 32.3501 51.2032 31.6825C50.9646 31.012 50.8452 30.2024 50.8452 29.2535C50.8452 28.3103 50.9646 27.5049 51.2032 26.8373C51.4447 26.1669 51.7913 25.6555 52.243 25.3032C52.6975 24.9481 53.243 24.7706 53.8793 24.7706C54.5157 24.7706 55.0597 24.9481 55.5114 25.3032C55.966 25.6555 56.3126 26.1669 56.5512 26.8373C56.7927 27.5049 56.9134 28.3103 56.9134 29.2535C56.9134 30.2024 56.7941 31.012 56.5555 31.6825C56.3168 32.3501 55.9717 32.86 55.52 33.2123C55.0683 33.5617 54.5214 33.7365 53.8793 33.7365ZM53.8793 32.799C54.5157 32.799 55.01 32.4921 55.3623 31.8785C55.7146 31.2649 55.8907 30.3899 55.8907 29.2535C55.8907 28.4978 55.8097 27.8544 55.6478 27.3231C55.4887 26.7919 55.2586 26.387 54.9575 26.1086C54.6592 25.8302 54.2998 25.691 53.8793 25.691C53.2487 25.691 52.7558 26.0021 52.4006 26.6242C52.0455 27.2436 51.868 28.12 51.868 29.2535C51.868 30.0092 51.9475 30.6512 52.1066 31.1796C52.2657 31.7081 52.4944 32.11 52.7927 32.3856C53.0938 32.6612 53.456 32.799 53.8793 32.799ZM61.1513 33.7365C60.5093 33.7365 59.9624 33.5617 59.5107 33.2123C59.059 32.86 58.7138 32.3501 58.4752 31.6825C58.2366 31.012 58.1172 30.2024 58.1172 29.2535C58.1172 28.3103 58.2366 27.5049 58.4752 26.8373C58.7167 26.1669 59.0633 25.6555 59.515 25.3032C59.9695 24.9481 60.515 24.7706 61.1513 24.7706C61.7877 24.7706 62.3317 24.9481 62.7834 25.3032C63.238 25.6555 63.5846 26.1669 63.8232 26.8373C64.0647 27.5049 64.1854 28.3103 64.1854 29.2535C64.1854 30.2024 64.0661 31.012 63.8275 31.6825C63.5888 32.3501 63.2437 32.86 62.792 33.2123C62.3403 33.5617 61.7934 33.7365 61.1513 33.7365ZM61.1513 32.799C61.7877 32.799 62.282 32.4921 62.6343 31.8785C62.9866 31.2649 63.1627 30.3899 63.1627 29.2535C63.1627 28.4978 63.0817 27.8544 62.9198 27.3231C62.7607 26.7919 62.5306 26.387 62.2295 26.1086C61.9312 25.8302 61.5718 25.691 61.1513 25.691C60.5207 25.691 60.0278 26.0021 59.6726 26.6242C59.3175 27.2436 59.14 28.12 59.14 29.2535C59.14 30.0092 59.2195 30.6512 59.3786 31.1796C59.5377 31.7081 59.7664 32.11 60.0647 32.3856C60.3658 32.6612 60.728 32.799 61.1513 32.799Z" fill="black"/>
<path d="M54.3055 61.7365C53.7203 61.7365 53.2032 61.6328 52.7543 61.4254C52.3083 61.2152 51.9603 60.9268 51.7103 60.5603C51.4603 60.191 51.3367 59.7706 51.3396 59.299C51.3367 58.9296 51.4092 58.5887 51.5569 58.2762C51.7046 57.9609 51.9063 57.6981 52.162 57.4879C52.4205 57.2748 52.7089 57.1399 53.0271 57.0831V57.0319C52.6095 56.924 52.2771 56.6896 52.0299 56.3288C51.7828 55.9652 51.6606 55.5518 51.6634 55.0887C51.6606 54.6456 51.7728 54.2492 52.0001 53.8998C52.2274 53.5504 52.5399 53.2748 52.9376 53.0731C53.3381 52.8714 53.7941 52.7706 54.3055 52.7706C54.8112 52.7706 55.2629 52.8714 55.6606 53.0731C56.0583 53.2748 56.3708 53.5504 56.5981 53.8998C56.8282 54.2492 56.9447 54.6456 56.9475 55.0887C56.9447 55.5518 56.8183 55.9652 56.5683 56.3288C56.3211 56.6896 55.993 56.924 55.5839 57.0319V57.0831C55.8992 57.1399 56.1833 57.2748 56.4362 57.4879C56.689 57.6981 56.8907 57.9609 57.0413 58.2762C57.1918 58.5887 57.2685 58.9296 57.2714 59.299C57.2685 59.7706 57.1407 60.191 56.8879 60.5603C56.6379 60.9268 56.2899 61.2152 55.8438 61.4254C55.4006 61.6328 54.8879 61.7365 54.3055 61.7365ZM54.3055 60.799C54.7004 60.799 55.0413 60.735 55.3282 60.6072C55.6151 60.4794 55.8367 60.299 55.993 60.066C56.1492 59.8331 56.2288 59.5603 56.2316 59.2478C56.2288 58.9183 56.1435 58.6271 55.9759 58.3742C55.8083 58.1214 55.5796 57.9225 55.2899 57.7777C55.0029 57.6328 54.6748 57.5603 54.3055 57.5603C53.9333 57.5603 53.6009 57.6328 53.3083 57.7777C53.0185 57.9225 52.7899 58.1214 52.6222 58.3742C52.4575 58.6271 52.3765 58.9183 52.3793 59.2478C52.3765 59.5603 52.4518 59.8331 52.6052 60.066C52.7614 60.299 52.9845 60.4794 53.2742 60.6072C53.564 60.735 53.9078 60.799 54.3055 60.799ZM54.3055 56.6569C54.618 56.6569 54.895 56.5944 55.1364 56.4694C55.3808 56.3444 55.5725 56.1697 55.7117 55.9453C55.8509 55.7208 55.922 55.4581 55.9248 55.1569C55.922 54.8615 55.8524 54.6044 55.716 54.3856C55.5796 54.164 55.3907 53.9936 55.1492 53.8742C54.9078 53.7521 54.6265 53.691 54.3055 53.691C53.9788 53.691 53.6933 53.7521 53.4489 53.8742C53.2046 53.9936 53.0157 54.164 52.8822 54.3856C52.7487 54.6044 52.6833 54.8615 52.6862 55.1569C52.6833 55.4581 52.7501 55.7208 52.8864 55.9453C53.0256 56.1697 53.2174 56.3444 53.4617 56.4694C53.706 56.5944 53.9873 56.6569 54.3055 56.6569ZM61.4038 61.7365C60.9038 61.7365 60.4535 61.637 60.053 61.4382C59.6524 61.2393 59.3314 60.9666 59.0899 60.62C58.8484 60.2734 58.7163 59.8785 58.6936 59.4353H59.7163C59.7561 59.8302 59.9351 60.1569 60.2533 60.4154C60.5743 60.6711 60.9578 60.799 61.4038 60.799C61.7618 60.799 62.08 60.7152 62.3584 60.5475C62.6396 60.3799 62.8598 60.1498 63.0189 59.8572C63.1808 59.5617 63.2618 59.2279 63.2618 58.8558C63.2618 58.4751 63.178 58.1356 63.0104 57.8373C62.8456 57.5362 62.6183 57.299 62.3285 57.1257C62.0388 56.9524 61.7078 56.8643 61.3356 56.8615C61.0686 56.8586 60.7945 56.8998 60.5132 56.985C60.232 57.0674 60.0004 57.174 59.8186 57.3046L58.83 57.1853L59.3584 52.8899H63.8925V53.8274H60.2447L59.9379 56.4012H59.9891C60.168 56.2592 60.3925 56.1413 60.6624 56.0475C60.9322 55.9538 61.2135 55.9069 61.5061 55.9069C62.0402 55.9069 62.516 56.0348 62.9337 56.2904C63.3541 56.5433 63.6837 56.8899 63.9223 57.3302C64.1638 57.7706 64.2845 58.2734 64.2845 58.8387C64.2845 59.3956 64.1595 59.8927 63.9095 60.3302C63.6624 60.7649 63.3214 61.1086 62.8868 61.3615C62.4521 61.6115 61.9578 61.7365 61.4038 61.7365Z" fill="black"/>
<path d="M52.5464 89.6171L56.4498 81.8956V81.8274H51.9498V80.8899H57.5407V81.8785L53.6544 89.6171H52.5464ZM61.5603 89.7365C60.9182 89.7365 60.3713 89.5617 59.9196 89.2123C59.4679 88.86 59.1228 88.3501 58.8841 87.6825C58.6455 87.012 58.5262 86.2024 58.5262 85.2535C58.5262 84.3103 58.6455 83.5049 58.8841 82.8373C59.1256 82.1669 59.4722 81.6555 59.9239 81.3032C60.3784 80.9481 60.9239 80.7706 61.5603 80.7706C62.1966 80.7706 62.7407 80.9481 63.1924 81.3032C63.6469 81.6555 63.9935 82.1669 64.2321 82.8373C64.4736 83.5049 64.5943 84.3103 64.5943 85.2535C64.5943 86.2024 64.475 87.012 64.2364 87.6825C63.9978 88.3501 63.6526 88.86 63.2009 89.2123C62.7492 89.5617 62.2023 89.7365 61.5603 89.7365ZM61.5603 88.799C62.1966 88.799 62.6909 88.4921 63.0432 87.8785C63.3955 87.2649 63.5716 86.3899 63.5716 85.2535C63.5716 84.4978 63.4907 83.8544 63.3287 83.3231C63.1696 82.7919 62.9395 82.387 62.6384 82.1086C62.3401 81.8302 61.9807 81.691 61.5603 81.691C60.9296 81.691 60.4367 82.0021 60.0816 82.6242C59.7264 83.2436 59.5489 84.12 59.5489 85.2535C59.5489 86.0092 59.6284 86.6512 59.7875 87.1796C59.9466 87.7081 60.1753 88.11 60.4736 88.3856C60.7747 88.6612 61.137 88.799 61.5603 88.799Z" fill="black"/>
<path d="M54.2842 117.736C53.7842 117.736 53.3339 117.637 52.9333 117.438C52.5328 117.239 52.2117 116.967 51.9703 116.62C51.7288 116.273 51.5967 115.879 51.5739 115.435H52.5967C52.6364 115.83 52.8154 116.157 53.1336 116.415C53.4546 116.671 53.8381 116.799 54.2842 116.799C54.6421 116.799 54.9603 116.715 55.2387 116.548C55.52 116.38 55.7401 116.15 55.8992 115.857C56.0612 115.562 56.1421 115.228 56.1421 114.856C56.1421 114.475 56.0583 114.136 55.8907 113.837C55.7259 113.536 55.4987 113.299 55.2089 113.126C54.9191 112.952 54.5881 112.864 54.216 112.861C53.9489 112.859 53.6748 112.9 53.3935 112.985C53.1123 113.067 52.8808 113.174 52.6989 113.305L51.7103 113.185L52.2387 108.89H56.7728V109.827H53.1251L52.8183 112.401H52.8694C53.0484 112.259 53.2728 112.141 53.5427 112.048C53.8126 111.954 54.0938 111.907 54.3864 111.907C54.9205 111.907 55.3964 112.035 55.814 112.29C56.2345 112.543 56.564 112.89 56.8026 113.33C57.0441 113.771 57.1649 114.273 57.1649 114.839C57.1649 115.396 57.0399 115.893 56.7899 116.33C56.5427 116.765 56.2018 117.109 55.7671 117.361C55.3325 117.611 54.8381 117.736 54.2842 117.736ZM61.357 117.736C60.857 117.736 60.4067 117.637 60.0061 117.438C59.6055 117.239 59.2845 116.967 59.043 116.62C58.8016 116.273 58.6695 115.879 58.6467 115.435H59.6695C59.7092 115.83 59.8882 116.157 60.2064 116.415C60.5274 116.671 60.9109 116.799 61.357 116.799C61.7149 116.799 62.0331 116.715 62.3115 116.548C62.5927 116.38 62.8129 116.15 62.972 115.857C63.1339 115.562 63.2149 115.228 63.2149 114.856C63.2149 114.475 63.1311 114.136 62.9635 113.837C62.7987 113.536 62.5714 113.299 62.2817 113.126C61.9919 112.952 61.6609 112.864 61.2888 112.861C61.0217 112.859 60.7476 112.9 60.4663 112.985C60.1851 113.067 59.9535 113.174 59.7717 113.305L58.7831 113.185L59.3115 108.89H63.8456V109.827H60.1979L59.891 112.401H59.9422C60.1212 112.259 60.3456 112.141 60.6155 112.048C60.8854 111.954 61.1666 111.907 61.4592 111.907C61.9933 111.907 62.4692 112.035 62.8868 112.29C63.3072 112.543 63.6368 112.89 63.8754 113.33C64.1169 113.771 64.2376 114.273 64.2376 114.839C64.2376 115.396 64.1126 115.893 63.8626 116.33C63.6155 116.765 63.2746 117.109 62.8399 117.361C62.4052 117.611 61.9109 117.736 61.357 117.736Z" fill="black"/>
<path d="M51.0535 143.827V142.958L54.8888 136.89H55.5194V138.236H55.0933L52.1956 142.822V142.89H57.3603V143.827H51.0535ZM55.1615 145.617V143.563V143.158V136.89H56.1672V145.617H55.1615ZM61.5759 145.736C60.9338 145.736 60.387 145.562 59.9353 145.212C59.4836 144.86 59.1384 144.35 58.8997 143.682C58.6611 143.012 58.5418 142.202 58.5418 141.254C58.5418 140.31 58.6611 139.505 58.8997 138.837C59.1412 138.167 59.4878 137.655 59.9395 137.303C60.3941 136.948 60.9395 136.771 61.5759 136.771C62.2122 136.771 62.7563 136.948 63.208 137.303C63.6625 137.655 64.0091 138.167 64.2478 138.837C64.4892 139.505 64.61 140.31 64.61 141.254C64.61 142.202 64.4907 143.012 64.252 143.682C64.0134 144.35 63.6682 144.86 63.2165 145.212C62.7648 145.562 62.2179 145.736 61.5759 145.736ZM61.5759 144.799C62.2122 144.799 62.7066 144.492 63.0588 143.879C63.4111 143.265 63.5872 142.39 63.5872 141.254C63.5872 140.498 63.5063 139.854 63.3443 139.323C63.1853 138.792 62.9551 138.387 62.654 138.109C62.3557 137.83 61.9963 137.691 61.5759 137.691C60.9452 137.691 60.4523 138.002 60.0972 138.624C59.7421 139.244 59.5645 140.12 59.5645 141.254C59.5645 142.009 59.6441 142.651 59.8032 143.18C59.9622 143.708 60.1909 144.11 60.4892 144.386C60.7904 144.661 61.1526 144.799 61.5759 144.799Z" fill="black"/>
<path d="M51.5745 173.617V172.85L54.4552 169.697C54.7932 169.327 55.0716 169.006 55.2904 168.734C55.5091 168.458 55.6711 168.2 55.7762 167.958C55.8841 167.714 55.9381 167.458 55.9381 167.191C55.9381 166.884 55.8642 166.619 55.7165 166.394C55.5716 166.17 55.3728 165.996 55.1199 165.874C54.8671 165.752 54.583 165.691 54.2677 165.691C53.9324 165.691 53.6398 165.761 53.3898 165.9C53.1427 166.036 52.9509 166.228 52.8145 166.475C52.681 166.722 52.6142 167.012 52.6142 167.344H51.6086C51.6086 166.833 51.7265 166.384 51.9623 165.998C52.1981 165.611 52.5191 165.31 52.9253 165.094C53.3344 164.879 53.7932 164.771 54.3017 164.771C54.8131 164.771 55.2662 164.879 55.6611 165.094C56.056 165.31 56.3657 165.602 56.5901 165.968C56.8145 166.334 56.9267 166.742 56.9267 167.191C56.9267 167.512 56.8685 167.826 56.752 168.133C56.6384 168.437 56.4395 168.776 56.1554 169.151C55.8742 169.523 55.4836 169.978 54.9836 170.515L53.0233 172.611V172.68H57.0802V173.617H51.5745ZM61.3394 173.736C60.8394 173.736 60.3891 173.637 59.9885 173.438C59.588 173.239 59.2669 172.967 59.0255 172.62C58.784 172.273 58.6519 171.879 58.6291 171.435H59.6519C59.6916 171.83 59.8706 172.157 60.1888 172.415C60.5098 172.671 60.8934 172.799 61.3394 172.799C61.6973 172.799 62.0155 172.715 62.2939 172.548C62.5752 172.38 62.7953 172.15 62.9544 171.857C63.1164 171.562 63.1973 171.228 63.1973 170.856C63.1973 170.475 63.1135 170.136 62.9459 169.837C62.7811 169.536 62.5539 169.299 62.2641 169.126C61.9743 168.952 61.6434 168.864 61.2712 168.861C61.0041 168.859 60.73 168.9 60.4487 168.985C60.1675 169.067 59.936 169.174 59.7541 169.305L58.7655 169.185L59.2939 164.89H63.828V165.827H60.1803L59.8735 168.401H59.9246C60.1036 168.259 60.328 168.141 60.5979 168.048C60.8678 167.954 61.149 167.907 61.4416 167.907C61.9757 167.907 62.4516 168.035 62.8692 168.29C63.2897 168.543 63.6192 168.89 63.8578 169.33C64.0993 169.771 64.2201 170.273 64.2201 170.839C64.2201 171.396 64.0951 171.893 63.8451 172.33C63.5979 172.765 63.257 173.109 62.8223 173.361C62.3877 173.611 61.8934 173.736 61.3394 173.736Z" fill="black"/>
<path d="M56.4864 192.89V201.617H55.4296V193.998H55.3785L53.2478 195.413V194.339L55.4296 192.89H56.4864ZM61.4956 201.736C60.9956 201.736 60.5453 201.637 60.1448 201.438C59.7442 201.239 59.4232 200.967 59.1817 200.62C58.9402 200.273 58.8081 199.879 58.7854 199.435H59.8081C59.8479 199.83 60.0269 200.157 60.3451 200.415C60.6661 200.671 61.0496 200.799 61.4956 200.799C61.8536 200.799 62.1718 200.715 62.4502 200.548C62.7314 200.38 62.9516 200.15 63.1107 199.857C63.2726 199.562 63.3536 199.228 63.3536 198.856C63.3536 198.475 63.2698 198.136 63.1022 197.837C62.9374 197.536 62.7101 197.299 62.4203 197.126C62.1306 196.952 61.7996 196.864 61.4274 196.861C61.1604 196.859 60.8862 196.9 60.605 196.985C60.3237 197.067 60.0922 197.174 59.9104 197.305L58.9218 197.185L59.4502 192.89H63.9843V193.827H60.3365L60.0297 196.401H60.0809C60.2598 196.259 60.4843 196.141 60.7541 196.048C61.024 195.954 61.3053 195.907 61.5979 195.907C62.132 195.907 62.6078 196.035 63.0255 196.29C63.4459 196.543 63.7755 196.89 64.0141 197.33C64.2556 197.771 64.3763 198.273 64.3763 198.839C64.3763 199.396 64.2513 199.893 64.0013 200.33C63.7541 200.765 63.4132 201.109 62.9786 201.361C62.5439 201.611 62.0496 201.736 61.4956 201.736Z" fill="black"/>
<path d="M73.8573 239.059C73.2153 239.059 72.6684 238.885 72.2167 238.535C71.765 238.183 71.4198 237.673 71.1812 237.005C70.9425 236.335 70.8232 235.525 70.8232 234.576C70.8232 233.633 70.9425 232.828 71.1812 232.16C71.4226 231.49 71.7692 230.978 72.2209 230.626C72.6755 230.271 73.2209 230.093 73.8573 230.093C74.4937 230.093 75.0377 230.271 75.4894 230.626C75.9439 230.978 76.2905 231.49 76.5292 232.16C76.7707 232.828 76.8914 233.633 76.8914 234.576C76.8914 235.525 76.7721 236.335 76.5334 237.005C76.2948 237.673 75.9496 238.183 75.4979 238.535C75.0462 238.885 74.4993 239.059 73.8573 239.059ZM73.8573 238.122C74.4937 238.122 74.988 237.815 75.3403 237.201C75.6925 236.588 75.8687 235.713 75.8687 234.576C75.8687 233.821 75.7877 233.177 75.6258 232.646C75.4667 232.115 75.2366 231.71 74.9354 231.431C74.6371 231.153 74.2778 231.014 73.8573 231.014C73.2266 231.014 72.7337 231.325 72.3786 231.947C72.0235 232.566 71.8459 233.443 71.8459 234.576C71.8459 235.332 71.9255 235.974 72.0846 236.502C72.2437 237.031 72.4724 237.433 72.7707 237.708C73.0718 237.984 73.434 238.122 73.8573 238.122Z" fill="black"/>
<path d="M205.402 230.213V238.94H204.345V231.321H204.294L202.163 232.735V231.662L204.345 230.213H205.402ZM207.684 238.94V238.173L210.565 235.02C210.903 234.65 211.181 234.329 211.4 234.056C211.619 233.781 211.781 233.522 211.886 233.281C211.994 233.037 212.048 232.781 212.048 232.514C212.048 232.207 211.974 231.941 211.826 231.717C211.681 231.493 211.482 231.319 211.229 231.197C210.977 231.075 210.692 231.014 210.377 231.014C210.042 231.014 209.749 231.083 209.499 231.223C209.252 231.359 209.06 231.551 208.924 231.798C208.79 232.045 208.724 232.335 208.724 232.667H207.718C207.718 232.156 207.836 231.707 208.072 231.321C208.308 230.934 208.629 230.633 209.035 230.417C209.444 230.201 209.903 230.093 210.411 230.093C210.923 230.093 211.376 230.201 211.771 230.417C212.165 230.633 212.475 230.924 212.7 231.291C212.924 231.657 213.036 232.065 213.036 232.514C213.036 232.835 212.978 233.149 212.861 233.456C212.748 233.76 212.549 234.099 212.265 234.474C211.984 234.846 211.593 235.301 211.093 235.838L209.133 237.934V238.002H213.19V238.94H207.684Z" fill="black"/>
<path d="M341.718 230.213V238.94H340.662V231.321H340.611L338.48 232.735V231.662L340.662 230.213H341.718ZM346.796 239.059C346.211 239.059 345.694 238.956 345.245 238.748C344.799 238.538 344.451 238.25 344.201 237.883C343.951 237.514 343.827 237.093 343.83 236.622C343.827 236.252 343.9 235.912 344.047 235.599C344.195 235.284 344.397 235.021 344.652 234.811C344.911 234.598 345.199 234.463 345.517 234.406V234.355C345.1 234.247 344.767 234.012 344.52 233.652C344.273 233.288 344.151 232.875 344.154 232.412C344.151 231.968 344.263 231.572 344.49 231.223C344.718 230.873 345.03 230.598 345.428 230.396C345.829 230.194 346.284 230.093 346.796 230.093C347.302 230.093 347.753 230.194 348.151 230.396C348.549 230.598 348.861 230.873 349.088 231.223C349.319 231.572 349.435 231.968 349.438 232.412C349.435 232.875 349.309 233.288 349.059 233.652C348.811 234.012 348.483 234.247 348.074 234.355V234.406C348.39 234.463 348.674 234.598 348.927 234.811C349.179 235.021 349.381 235.284 349.532 235.599C349.682 235.912 349.759 236.252 349.762 236.622C349.759 237.093 349.631 237.514 349.378 237.883C349.128 238.25 348.78 238.538 348.334 238.748C347.891 238.956 347.378 239.059 346.796 239.059ZM346.796 238.122C347.191 238.122 347.532 238.058 347.819 237.93C348.106 237.802 348.327 237.622 348.483 237.389C348.64 237.156 348.719 236.883 348.722 236.571C348.719 236.241 348.634 235.95 348.466 235.697C348.299 235.444 348.07 235.245 347.78 235.1C347.493 234.956 347.165 234.883 346.796 234.883C346.424 234.883 346.091 234.956 345.799 235.1C345.509 235.245 345.28 235.444 345.113 235.697C344.948 235.95 344.867 236.241 344.87 236.571C344.867 236.883 344.942 237.156 345.096 237.389C345.252 237.622 345.475 237.802 345.765 237.93C346.054 238.058 346.398 238.122 346.796 238.122ZM346.796 233.98C347.108 233.98 347.385 233.917 347.627 233.792C347.871 233.667 348.063 233.493 348.202 233.268C348.341 233.044 348.412 232.781 348.415 232.48C348.412 232.184 348.343 231.927 348.206 231.708C348.07 231.487 347.881 231.316 347.64 231.197C347.398 231.075 347.117 231.014 346.796 231.014C346.469 231.014 346.184 231.075 345.939 231.197C345.695 231.316 345.506 231.487 345.373 231.708C345.239 231.927 345.174 232.184 345.177 232.48C345.174 232.781 345.24 233.044 345.377 233.268C345.516 233.493 345.708 233.667 345.952 233.792C346.196 233.917 346.478 233.98 346.796 233.98Z" fill="black"/>
<path d="M477.896 239.059C477.334 239.059 476.832 238.963 476.392 238.77C475.954 238.576 475.606 238.308 475.348 237.964C475.092 237.618 474.953 237.216 474.93 236.758H476.004C476.027 237.039 476.123 237.282 476.294 237.487C476.464 237.689 476.687 237.845 476.963 237.956C477.238 238.066 477.544 238.122 477.879 238.122C478.254 238.122 478.586 238.056 478.876 237.926C479.166 237.795 479.393 237.613 479.558 237.38C479.723 237.147 479.805 236.877 479.805 236.571C479.805 236.25 479.726 235.967 479.567 235.723C479.407 235.475 479.174 235.282 478.868 235.143C478.561 235.004 478.186 234.934 477.743 234.934H477.044V233.997H477.743C478.089 233.997 478.393 233.934 478.655 233.809C478.919 233.684 479.125 233.508 479.273 233.281C479.423 233.054 479.498 232.787 479.498 232.48C479.498 232.184 479.433 231.927 479.302 231.708C479.172 231.49 478.987 231.319 478.748 231.197C478.513 231.075 478.234 231.014 477.913 231.014C477.612 231.014 477.328 231.069 477.061 231.18C476.797 231.288 476.581 231.446 476.413 231.653C476.246 231.858 476.155 232.105 476.14 232.395H475.118C475.135 231.937 475.273 231.537 475.531 231.193C475.79 230.846 476.128 230.576 476.545 230.383C476.966 230.19 477.427 230.093 477.93 230.093C478.47 230.093 478.933 230.203 479.319 230.422C479.706 230.637 480.003 230.923 480.21 231.278C480.417 231.633 480.521 232.017 480.521 232.429C480.521 232.92 480.392 233.339 480.133 233.686C479.878 234.032 479.53 234.272 479.089 234.406V234.474C479.64 234.565 480.071 234.799 480.38 235.177C480.69 235.552 480.845 236.017 480.845 236.571C480.845 237.045 480.716 237.471 480.457 237.849C480.201 238.224 479.852 238.52 479.409 238.735C478.966 238.951 478.461 239.059 477.896 239.059ZM485.206 239.059C484.564 239.059 484.018 238.885 483.566 238.535C483.114 238.183 482.769 237.673 482.53 237.005C482.292 236.335 482.172 235.525 482.172 234.576C482.172 233.633 482.292 232.828 482.53 232.16C482.772 231.49 483.118 230.978 483.57 230.626C484.025 230.271 484.57 230.093 485.206 230.093C485.843 230.093 486.387 230.271 486.839 230.626C487.293 230.978 487.64 231.49 487.878 232.16C488.12 232.828 488.241 233.633 488.241 234.576C488.241 235.525 488.121 236.335 487.883 237.005C487.644 237.673 487.299 238.183 486.847 238.535C486.395 238.885 485.848 239.059 485.206 239.059ZM485.206 238.122C485.843 238.122 486.337 237.815 486.689 237.201C487.042 236.588 487.218 235.713 487.218 234.576C487.218 233.821 487.137 233.177 486.975 232.646C486.816 232.115 486.586 231.71 486.285 231.431C485.986 231.153 485.627 231.014 485.206 231.014C484.576 231.014 484.083 231.325 483.728 231.947C483.373 232.566 483.195 233.443 483.195 234.576C483.195 235.332 483.275 235.974 483.434 236.502C483.593 237.031 483.821 237.433 484.12 237.708C484.421 237.984 484.783 238.122 485.206 238.122Z" fill="black"/>
<path d="M71.9531 224.543L97.8002 167.26L127.14 153.987L154.384 130.236L181.629 153.987L211.667 111.374L237.514 124.647V84.8286H265.457L294.099 56.8857L321.343 84.8286L328.329 111.374L341.602 140.714L367.449 167.26L405.87 140.714L434.512 111.374L453.373 167.26L461.756 140.714L487.603 84.8286" stroke="#9747FF" stroke-width="2"/>
</svg>
