<svg width="67" height="19" viewBox="0 0 67 19" fill="none" xmlns="http://www.w3.org/2000/svg">
<path d="M0.48 18L4.56 1.2H7.68L11.76 18H9.6L8.52 13.68H3.72L2.64 18H0.48ZM4.08 12H8.16L6.168 3.6H6.072L4.08 12ZM15.1191 18V2.88H11.2791V1.2H21.1191V2.88H17.2791V18H15.1191ZM23.0316 18V1.44C23.6396 1.264 24.2476 1.144 24.8556 1.08C25.4796 0.999999 26.1516 0.959999 26.8716 0.959999C28.1516 0.959999 29.1756 1.144 29.9436 1.512C30.7276 1.864 31.2876 2.464 31.6236 3.312C31.9756 4.144 32.1516 5.28 32.1516 6.72C32.1516 7.792 32.0556 8.688 31.8636 9.408C31.6876 10.112 31.4236 10.672 31.0716 11.088C30.7196 11.488 30.2796 11.792 29.7516 12L32.6316 18H30.2316L27.5916 12.48H25.1916V18H23.0316ZM25.1916 10.8H26.8716C27.9596 10.8 28.7516 10.512 29.2476 9.936C29.7436 9.344 29.9916 8.272 29.9916 6.72C29.9916 5.632 29.8796 4.784 29.6556 4.176C29.4476 3.568 29.1116 3.144 28.6476 2.904C28.1836 2.648 27.5916 2.52 26.8716 2.52H25.1916V10.8ZM35.1488 18V1.2H43.3088V2.88H37.3088V8.4H42.5888V10.08H37.3088V16.32H43.3088V18H35.1488ZM50.6334 18.24C49.5614 18.24 48.6334 17.992 47.8494 17.496C47.0814 16.984 46.4894 16.104 46.0734 14.856C45.6734 13.592 45.4734 11.84 45.4734 9.6C45.4734 7.36 45.6734 5.616 46.0734 4.368C46.4894 3.104 47.0814 2.224 47.8494 1.728C48.6334 1.216 49.5614 0.959999 50.6334 0.959999C51.7214 0.959999 52.6494 1.216 53.4174 1.728C54.1854 2.224 54.7694 3.104 55.1694 4.368C55.5854 5.616 55.7934 7.36 55.7934 9.6C55.7934 11.84 55.5854 13.592 55.1694 14.856C54.7694 16.104 54.1854 16.984 53.4174 17.496C52.6494 17.992 51.7214 18.24 50.6334 18.24ZM50.6334 16.8C51.0174 16.8 51.3854 16.696 51.7374 16.488C52.1054 16.264 52.4334 15.888 52.7214 15.36C53.0094 14.832 53.2334 14.104 53.3934 13.176C53.5534 12.232 53.6334 11.04 53.6334 9.6C53.6334 8.16 53.5534 6.976 53.3934 6.048C53.2334 5.104 53.0094 4.368 52.7214 3.84C52.4334 3.312 52.1054 2.944 51.7374 2.736C51.3854 2.512 51.0174 2.4 50.6334 2.4C50.2494 2.4 49.8734 2.512 49.5054 2.736C49.1534 2.944 48.8334 3.312 48.5454 3.84C48.2574 4.368 48.0334 5.104 47.8734 6.048C47.7134 6.976 47.6334 8.16 47.6334 9.6C47.6334 11.04 47.7134 12.232 47.8734 13.176C48.0334 14.104 48.2574 14.832 48.5454 15.36C48.8334 15.888 49.1534 16.264 49.5054 16.488C49.8734 16.696 50.2494 16.8 50.6334 16.8ZM61.44 18.24C60.72 18.24 60.032 18.184 59.376 18.072C58.72 17.976 58.208 17.872 57.84 17.76V16.68H60.96C62.336 16.68 63.296 16.44 63.84 15.96C64.4 15.464 64.68 14.704 64.68 13.68C64.68 12.976 64.512 12.424 64.176 12.024C63.856 11.608 63.432 11.264 62.904 10.992C62.392 10.72 61.84 10.456 61.248 10.2C60.672 9.944 60.12 9.632 59.592 9.264C59.08 8.88 58.656 8.376 58.32 7.752C58 7.128 57.84 6.304 57.84 5.28C57.84 3.84 58.208 2.76 58.944 2.04C59.696 1.32 60.848 0.959999 62.4 0.959999C63.12 0.959999 63.808 1.008 64.464 1.104C65.136 1.2 65.648 1.312 66 1.44V2.52H62.88C61.92 2.52 61.2 2.76 60.72 3.24C60.24 3.704 60 4.384 60 5.28C60 6.016 60.16 6.608 60.48 7.056C60.816 7.488 61.24 7.848 61.752 8.136C62.28 8.408 62.832 8.68 63.408 8.952C64 9.208 64.552 9.52 65.064 9.888C65.592 10.24 66.016 10.72 66.336 11.328C66.672 11.92 66.84 12.704 66.84 13.68C66.84 15.232 66.432 16.384 65.616 17.136C64.816 17.872 63.424 18.24 61.44 18.24Z" fill="#F0F5F9"/>
</svg>
